<?xml version="1.0" standalone="no"?><!DOCTYPE svg PUBLIC "-//W3C//DTD SVG 1.1//EN" "http://www.w3.org/Graphics/SVG/1.1/DTD/svg11.dtd"><svg t="1571303870696" class="icon" viewBox="0 0 1024 1024" version="1.1" xmlns="http://www.w3.org/2000/svg" p-id="761" xmlns:xlink="http://www.w3.org/1999/xlink" width="200" height="200"><defs><style type="text/css"></style></defs><path d="M921.6 260.26666666v614.4a136.53333333 136.53333333 0 0 1-136.53333333 136.53333334H238.93333333a136.53333333 136.53333333 0 0 1-136.53333333-136.53333334V260.26666666H34.13333333V192h204.8V123.73333333a68.26666667 68.26666667 0 0 1 68.26666667-68.26666667h409.6a68.26666667 68.26666667 0 0 1 68.26666667 68.26666667v68.26666667h204.8v68.26666666h-68.26666667z m-204.8-136.53333333H307.2v68.26666667h409.6V123.73333333z m136.53333333 136.53333333H170.66666667v614.4a68.26666667 68.26666667 0 0 0 68.26666666 68.26666667h546.13333334a68.26666667 68.26666667 0 0 0 68.26666666-68.26666667V260.26666666zM580.26666667 396.8h68.26666666v409.6H580.26666667V396.8zM375.46666667 396.8h68.26666666v409.6H375.46666667V396.8z" p-id="762"></path></svg>