<?xml version="1.0" standalone="no"?><!DOCTYPE svg PUBLIC "-//W3C//DTD SVG 1.1//EN" "http://www.w3.org/Graphics/SVG/1.1/DTD/svg11.dtd"><svg t="1571303168213" class="icon" viewBox="0 0 1024 1024" version="1.1" xmlns="http://www.w3.org/2000/svg" p-id="761" xmlns:xlink="http://www.w3.org/1999/xlink" width="200" height="200"><defs><style type="text/css"></style></defs><path d="M744.59995477 172.31911252" p-id="762"></path><path d="M1014.51149085 636.45136326l0.72652003-0.43428181L783.3954304 172.38664191l-0.95937877 0.53441195c-5.51759417-6.50724466-13.53493049-10.34592597-22.18564267-10.34592598L263.80780544 162.57512674c-8.74618425 0-16.8426917 3.92367445-22.36610787 10.56248491l-0.939586-0.47037553L8.82136747 636.0182454l0.72652003 0.43428181c-0.63337699 2.32160483-0.94657195 4.63855161-0.94657195 6.98693404l0 315.91749063c0 16.29430898 13.25666304 29.55097315 29.55097316 29.55097316l947.75363698 0c16.29547406 0 29.5521371-13.25666304 29.5521371-29.55097316L1015.45806279 643.43946239C1015.45922674 641.09107882 1015.14603179 638.77413204 1014.51149085 636.45136326zM282.07443058 221.67940095l459.91051719 0 196.10454471 392.20908829L669.98843506 613.88848924c-16.29547406 0-29.5521371 13.25666304-29.55213711 29.55097315 0 70.8042752-57.60349753 128.40660878-128.40660878 128.40660878-70.8042752 0-128.40777273-57.60349753-128.40777272-128.40660878 0-16.29430898-13.25666304-29.55097315-29.55097316-29.55097315L85.97105095 613.88848924 282.07443058 221.67940095zM956.35495367 929.80714495L67.70442581 929.80714495 67.70442581 672.99276344l259.3013157 0c14.33480078 90.48086187 92.80595854 157.9575808 185.0239488 157.9575808 92.18538951 0 170.66702621-67.47788402 185.04606948-157.9575808l259.27919388 0L956.35495367 929.80714495z" p-id="763"></path></svg>