<?xml version="1.0" standalone="no"?><!DOCTYPE svg PUBLIC "-//W3C//DTD SVG 1.1//EN" "http://www.w3.org/Graphics/SVG/1.1/DTD/svg11.dtd"><svg t="1571303253155" class="icon" viewBox="0 0 1024 1024" version="1.1" xmlns="http://www.w3.org/2000/svg" p-id="879" xmlns:xlink="http://www.w3.org/1999/xlink" width="200" height="200"><defs><style type="text/css"></style></defs><path d="M299.80444444 575.99999999l291.27111111 0C611.46453333 575.99999999 627.48444444 559.98008888 627.48444444 539.5911111 627.48444444 519.20213332 611.46453333 503.18222221 591.07555555 503.18222221l-291.27111111 0C279.41546666 503.18222221 263.39555555 519.20213332 263.39555555 539.5911111 263.39555555 559.98008888 279.41546666 575.99999999 299.80444444 575.99999999zM845.93777777 66.27555554L190.57777777 66.27555554C110.47822221 66.27555554 44.94222221 131.81155554 44.94222221 211.9111111l0 655.36c0 80.09955555 65.536 145.63555555 145.63555556 145.63555556l655.36 0c80.09955555 0 145.63555555-65.536 145.63555556-145.63555556L991.57333333 211.9111111C991.57333333 131.81155554 926.03733333 66.27555554 845.93777777 66.27555554zM918.75555555 867.2711111c0 40.04977778-32.768 72.81777778-72.81777778 72.81777778L190.57777777 940.08888888c-40.04977778 0-72.81777778-32.768-72.81777778-72.81777778L117.75999999 211.9111111c0-40.04977778 32.768-72.81777778 72.81777778-72.81777778l655.36 0c40.04977778 0 72.81777778 32.768 72.81777778 72.81777778L918.75555555 867.2711111zM736.71111111 284.72888888l-436.90666667 0C279.41546666 284.72888888 263.39555555 300.74879999 263.39555555 321.13777777 263.39555555 341.52675554 279.41546666 357.54666666 299.80444444 357.54666666l436.90666667 0C757.10008888 357.54666666 773.11999999 341.52675554 773.11999999 321.13777777 773.11999999 300.74879999 757.10008888 284.72888888 736.71111111 284.72888888zM663.89333333 721.63555554l-364.08888889 0C279.41546666 721.63555554 263.39555555 737.65546666 263.39555555 758.04444444l0 0C263.39555555 778.43342221 279.41546666 794.45333332 299.80444444 794.45333332l364.08888889 0c20.38897778 0 36.40888889-16.01991111 36.40888888-36.40888888l0 0C700.30222221 737.65546666 684.28231111 721.63555554 663.89333333 721.63555554z" p-id="880"></path></svg>